<svg width="16" height="16" viewBox="0 0 16 16" fill="none" xmlns="http://www.w3.org/2000/svg">
<g clip-path="url(#clip0_6_1586)">
<path d="M15.4572 6.9022L12.6812 2.0942C12.2892 1.4162 11.5592 0.994202 10.7752 0.994202H5.22319C4.43919 0.994202 3.70919 1.4162 3.31719 2.0942L0.541192 6.9022C0.149192 7.5802 0.149192 8.4242 0.541192 9.1022L3.31719 13.9102C3.70919 14.5902 4.43919 15.0102 5.22319 15.0102H10.7752C11.5592 15.0102 12.2892 14.5902 12.6812 13.9102L15.4572 9.1022C15.8492 8.4242 15.8492 7.5802 15.4572 6.9022ZM10.9752 10.7522C10.2592 11.5462 9.27719 12.0142 8.20919 12.0702C8.13719 12.0742 8.06719 12.0762 7.99519 12.0762C7.00519 12.0762 6.06319 11.7162 5.32119 11.0482C3.68119 9.5722 3.54719 7.0362 5.02519 5.3942C5.13919 5.2682 5.26119 5.1482 5.39119 5.0382C5.64119 4.8222 6.01919 4.8502 6.23719 5.1022C6.45319 5.3522 6.42319 5.7322 6.17119 5.9482C6.08319 6.0242 5.99719 6.1082 5.91719 6.1982C4.88319 7.3462 4.97519 9.1222 6.12519 10.1562C6.68119 10.6582 7.39719 10.9122 8.14719 10.8722C8.89519 10.8322 9.58319 10.5042 10.0832 9.9482C11.1172 8.8002 11.0232 7.0242 9.87519 5.9902C9.62919 5.7682 9.60919 5.3882 9.83119 5.1422C10.0532 4.8962 10.4312 4.8762 10.6792 5.0982C12.3192 6.5742 12.4512 9.1102 10.9752 10.7522ZM7.39919 7.7962V4.4042C7.39919 4.0722 7.66919 3.8042 7.99919 3.8042C8.33119 3.8042 8.59919 4.0722 8.59919 4.4042V7.7962C8.59919 8.1262 8.33119 8.3962 7.99919 8.3962C7.83519 8.3962 7.68319 8.3282 7.57519 8.2202C7.46719 8.1122 7.39919 7.9602 7.39919 7.7962ZM10.4232 25.7442L9.18319 23.6442C9.07119 23.4542 8.91319 23.2982 8.72919 23.1902L8.69719 23.1342H8.62919C8.45519 23.0502 8.26119 23.0042 8.06319 23.0042H5.53719C5.33719 23.0042 5.14519 23.0502 4.97119 23.1342H4.88319L4.83919 23.2082C4.66919 23.3162 4.52319 23.4642 4.41719 23.6442L3.17719 25.7442C3.06319 25.9382 3.00319 26.1522 2.99719 26.3682L2.97719 26.4042L2.99719 26.4402C3.00319 26.6562 3.06319 26.8702 3.17719 27.0642L4.41719 29.1642C4.52319 29.3442 4.66919 29.4922 4.84119 29.6002L4.88319 29.6722H4.96719C5.14319 29.7582 5.33519 29.8042 5.53719 29.8042H8.06319C8.26319 29.8042 8.45719 29.7582 8.63319 29.6722H8.69719L8.72719 29.6202C8.91319 29.5102 9.07119 29.3562 9.18319 29.1642L10.4232 27.0642C10.5432 26.8602 10.6032 26.6322 10.6032 26.4042C10.6032 26.1762 10.5432 25.9482 10.4232 25.7442ZM5.93519 27.4182C6.46719 27.8982 7.29119 27.8542 7.76919 27.3222C8.24919 26.7902 8.20519 25.9662 7.67319 25.4882C7.54919 25.3762 7.53919 25.1862 7.65119 25.0642C7.76119 24.9402 7.95119 24.9302 8.07519 25.0422C8.85319 25.7422 8.91519 26.9462 8.21519 27.7242C7.84119 28.1402 7.32319 28.3522 6.80319 28.3522C6.34919 28.3522 5.89519 28.1902 5.53319 27.8642C4.75519 27.1642 4.69119 25.9602 5.39319 25.1822C5.44719 25.1222 5.50519 25.0642 5.56519 25.0122C5.69119 24.9042 5.88119 24.9202 5.98919 25.0442C6.09719 25.1702 6.08319 25.3602 5.95719 25.4682C5.91519 25.5042 5.87519 25.5422 5.83719 25.5842C5.35919 26.1162 5.40319 26.9402 5.93519 27.4182ZM6.50319 26.1042V24.7042C6.50319 24.5382 6.63919 24.4042 6.80319 24.4042C6.96919 24.4042 7.10319 24.5382 7.10319 24.7042V26.1042C7.10319 26.2702 6.96919 26.4042 6.80319 26.4042C6.63919 26.4042 6.50319 26.2702 6.50319 26.1042ZM9.42919 39.4962C9.41519 39.3422 9.36919 39.1922 9.28919 39.0542L8.42319 37.5542C8.34319 37.4142 8.23519 37.2982 8.10719 37.2082L8.04719 37.1042H7.92719C7.78519 37.0382 7.63119 37.0042 7.47119 37.0042H5.73919C5.57919 37.0042 5.42519 37.0382 5.28319 37.1042H5.16319L5.10319 37.2082C4.97519 37.2982 4.86719 37.4142 4.78719 37.5542L3.92119 39.0542C3.84119 39.1922 3.79519 39.3422 3.78119 39.4962L3.72119 39.6002L3.77919 39.7022C3.79319 39.8582 3.83919 40.0142 3.92119 40.1542L4.78719 41.6542C4.86919 41.7962 4.98119 41.9162 5.11119 42.0062L5.16319 42.0962H5.26519C5.41119 42.1662 5.57319 42.2042 5.73919 42.2042H7.47119C7.63719 42.2042 7.79919 42.1662 7.94519 42.0962H8.04719L8.09919 42.0062C8.22919 41.9162 8.34119 41.7962 8.42319 41.6542L9.28919 40.1542C9.37119 40.0142 9.41719 39.8582 9.43119 39.7022L9.48919 39.6002L9.42919 39.4962ZM6.01119 40.3062C6.37519 40.6322 6.93719 40.6042 7.26319 40.2402C7.59119 39.8762 7.56119 39.3162 7.19719 38.9882C7.10519 38.9042 7.09919 38.7622 7.18119 38.6702C7.26519 38.5782 7.40719 38.5702 7.49919 38.6542C8.04719 39.1462 8.09119 39.9942 7.59919 40.5422C7.35919 40.8062 7.03119 40.9642 6.67519 40.9822C6.65119 40.9842 6.62719 40.9842 6.60319 40.9842C6.27319 40.9842 5.95719 40.8642 5.71119 40.6402C5.44519 40.4022 5.28919 40.0742 5.26919 39.7182C5.25119 39.3602 5.37319 39.0182 5.61119 38.7522C5.64919 38.7102 5.68919 38.6702 5.73319 38.6342C5.82719 38.5522 5.96919 38.5642 6.05119 38.6582C6.13119 38.7522 6.12119 38.8942 6.02719 38.9742C5.99719 39.0002 5.97119 39.0262 5.94519 39.0542C5.78719 39.2302 5.70719 39.4562 5.71919 39.6942C5.73119 39.9302 5.83519 40.1482 6.01119 40.3062ZM6.37919 39.5742V38.4282C6.37919 38.3042 6.48119 38.2042 6.60519 38.2042C6.72919 38.2042 6.82919 38.3042 6.82919 38.4282V39.5742C6.82919 39.6982 6.72919 39.8002 6.60519 39.8002C6.48119 39.8002 6.37919 39.6982 6.37919 39.5742ZM7.93119 48.3302C7.92119 48.2322 7.88919 48.1362 7.83719 48.0482L7.42719 47.3502C7.37519 47.2642 7.30719 47.1902 7.22519 47.1342L7.18919 47.0742H7.12119C7.02919 47.0282 6.92719 47.0042 6.82319 47.0042H5.97919C5.87519 47.0042 5.77319 47.0282 5.68119 47.0742H5.62919L5.60319 47.1182C5.51119 47.1742 5.43319 47.2542 5.37719 47.3502L4.96519 48.0482C4.90719 48.1462 4.87519 48.2522 4.86919 48.3622L4.84719 48.4002L4.86919 48.4382C4.87319 48.5502 4.90519 48.6602 4.96519 48.7602L5.37719 49.4582C5.43519 49.5562 5.51519 49.6382 5.61119 49.6962L5.62919 49.7262H5.66519C5.76119 49.7782 5.86919 49.8042 5.97919 49.8042H6.82319C6.93519 49.8042 7.04319 49.7762 7.13919 49.7262H7.18919L7.21719 49.6802C7.30119 49.6242 7.37319 49.5482 7.42719 49.4582L7.83719 48.7602C7.89119 48.6702 7.92319 48.5702 7.93119 48.4682L7.97119 48.4002L7.93119 48.3302ZM6.07719 48.7822C6.17319 48.8702 6.29319 48.9142 6.42519 48.9062C6.55319 48.9002 6.67319 48.8422 6.75919 48.7462C6.84519 48.6522 6.88919 48.5282 6.88319 48.3982C6.87519 48.2702 6.81919 48.1522 6.72319 48.0642C6.67319 48.0202 6.66919 47.9442 6.71519 47.8962C6.75919 47.8462 6.83519 47.8422 6.88319 47.8862C7.02719 48.0162 7.11119 48.1922 7.12119 48.3862C7.13319 48.5782 7.06719 48.7642 6.93719 48.9082C6.80919 49.0522 6.63119 49.1362 6.43719 49.1462H6.39919C6.22119 49.1462 6.04919 49.0822 5.91719 48.9622C5.77319 48.8322 5.68719 48.6542 5.67719 48.4622C5.66719 48.2682 5.73319 48.0842 5.86319 47.9402C5.88319 47.9182 5.90519 47.8962 5.92719 47.8762C5.97719 47.8322 6.05319 47.8382 6.09719 47.8882C6.14119 47.9382 6.13519 48.0142 6.08519 48.0562C6.06919 48.0702 6.05519 48.0842 6.04119 48.1002C5.95519 48.1962 5.91119 48.3202 5.91719 48.4482C5.92519 48.5782 5.98119 48.6962 6.07719 48.7822ZM6.27919 48.4042V47.8142C6.27919 47.7482 6.33319 47.6942 6.39919 47.6942C6.46719 47.6942 6.51919 47.7482 6.51919 47.8142V48.4042C6.51919 48.4702 6.46719 48.5242 6.39919 48.5242C6.33319 48.5242 6.27919 48.4702 6.27919 48.4042Z" fill="white"/>
<path d="M15.2832 7.0022L12.5072 2.1942C12.1512 1.5762 11.4892 1.1942 10.7752 1.1942H5.22316C4.50916 1.1942 3.84716 1.5762 3.49116 2.1942L0.715155 7.0022C0.357155 7.6222 0.357155 8.3842 0.715155 9.0022L3.49116 13.8102C3.84716 14.4302 4.50916 14.8102 5.22316 14.8102H10.7752C11.4892 14.8102 12.1512 14.4302 12.5072 13.8102L15.2832 9.0022C15.6412 8.3842 15.6412 7.6222 15.2832 7.0022ZM10.9752 10.7522C10.2592 11.5462 9.27716 12.0142 8.20916 12.0702C8.13716 12.0742 8.06716 12.0762 7.99516 12.0762C7.00516 12.0762 6.06316 11.7162 5.32116 11.0482C3.68116 9.5722 3.54716 7.0362 5.02516 5.3942C5.13916 5.2682 5.26116 5.1482 5.39116 5.0382C5.64116 4.8222 6.01916 4.8502 6.23716 5.1022C6.45316 5.3522 6.42316 5.7322 6.17116 5.9482C6.08316 6.0242 5.99716 6.1082 5.91716 6.1982C4.88316 7.3462 4.97516 9.1222 6.12516 10.1562C6.68116 10.6582 7.39716 10.9122 8.14716 10.8722C8.89516 10.8322 9.58316 10.5042 10.0832 9.9482C11.1172 8.8002 11.0232 7.0242 9.87516 5.9902C9.62916 5.7682 9.60915 5.3882 9.83115 5.1422C10.0532 4.8962 10.4312 4.8762 10.6792 5.0982C12.3192 6.5742 12.4512 9.1102 10.9752 10.7522ZM8.59915 4.4042V7.7962C8.59915 8.1262 8.33115 8.3962 7.99915 8.3962C7.83515 8.3962 7.68315 8.3282 7.57515 8.2202C7.46715 8.1122 7.39915 7.9602 7.39915 7.7962V4.4042C7.39915 4.0722 7.66915 3.8042 7.99915 3.8042C8.33115 3.8042 8.59915 4.0722 8.59915 4.4042Z" fill="#68BD45"/>
<path d="M15.4572 6.9022L12.6812 2.0942C12.2892 1.4162 11.5592 0.994202 10.7752 0.994202H5.22319C4.43919 0.994202 3.70919 1.4162 3.31719 2.0942L0.541192 6.9022C0.149192 7.5802 0.149192 8.4242 0.541192 9.1022L3.31719 13.9102C3.70919 14.5902 4.43919 15.0102 5.22319 15.0102H10.7752C11.5592 15.0102 12.2892 14.5902 12.6812 13.9102L15.4572 9.1022C15.8492 8.4242 15.8492 7.5802 15.4572 6.9022ZM10.7752 14.6102H5.22319C4.58119 14.6102 3.98519 14.2662 3.66319 13.7102L0.887192 8.9022C0.567192 8.3482 0.567192 7.6582 0.887192 7.1022L3.66319 2.2942C3.98519 1.7382 4.58119 1.3942 5.22319 1.3942H10.7752C11.4172 1.3942 12.0132 1.7382 12.3352 2.2942L15.1112 7.1022C15.4312 7.6582 15.4312 8.3482 15.1112 8.9022L12.3352 13.7102C12.0132 14.2662 11.4172 14.6102 10.7752 14.6102Z" fill="#5E9C76"/>
<g clip-path="url(#clip1_6_1586)">
<path fill-rule="evenodd" clip-rule="evenodd" d="M8.16598 12.677C8.17057 12.6403 8.15041 12.605 8.11648 12.5902C8.08254 12.5755 8.04296 12.5849 8.01928 12.6133L7.18594 13.6133C7.16524 13.6382 7.16078 13.6727 7.17449 13.702C7.18821 13.7313 7.21763 13.75 7.24996 13.75H7.90556L7.83394 14.323C7.82935 14.3597 7.84951 14.395 7.88344 14.4098C7.91738 14.4245 7.95696 14.4151 7.98065 14.3867L8.81398 13.3867C8.83468 13.3618 8.83914 13.3273 8.82543 13.298C8.81171 13.2687 8.7823 13.25 8.74996 13.25H8.09436L8.16598 12.677ZM7.99996 13.5833H7.42788L7.96535 12.9384L7.91727 13.323C7.91431 13.3467 7.92167 13.3706 7.93749 13.3885C7.95331 13.4064 7.97606 13.4167 7.99996 13.4167H8.57204L8.03457 14.0616L8.08265 13.677C8.08561 13.6533 8.07825 13.6294 8.06243 13.6115C8.04661 13.5936 8.02386 13.5833 7.99996 13.5833Z" fill="white"/>
</g>
</g>
<defs>
<clipPath id="clip0_6_1586">
<rect width="16" height="16" fill="white"/>
</clipPath>
<clipPath id="clip1_6_1586">
<rect width="2" height="2" fill="white" transform="translate(7 12.5)"/>
</clipPath>
</defs>
</svg>
