<svg width="32" height="32" viewBox="0 0 32 32" fill="none" xmlns="http://www.w3.org/2000/svg">
<g clip-path="url(#clip0_6_1586)">
<path d="M30.9144 13.8044L25.3624 4.1884C24.5784 2.8324 23.1184 1.9884 21.5504 1.9884H10.4464C8.87838 1.9884 7.41839 2.8324 6.63439 4.1884L1.08238 13.8044C0.298385 15.1604 0.298385 16.8484 1.08238 18.2044L6.63439 27.8204C7.41839 29.1804 8.87838 30.0204 10.4464 30.0204H21.5504C23.1184 30.0204 24.5784 29.1804 25.3624 27.8204L30.9144 18.2044C31.6984 16.8484 31.6984 15.1604 30.9144 13.8044ZM21.9504 21.5044C20.5184 23.0924 18.5544 24.0284 16.4184 24.1404C16.2744 24.1484 16.1344 24.1524 15.9904 24.1524C14.0104 24.1524 12.1264 23.4324 10.6424 22.0964C7.36239 19.1444 7.09438 14.0724 10.0504 10.7884C10.2784 10.5364 10.5224 10.2964 10.7824 10.0764C11.2824 9.6444 12.0384 9.7004 12.4744 10.2044C12.9064 10.7044 12.8464 11.4644 12.3424 11.8964C12.1664 12.0484 11.9944 12.2164 11.8344 12.3964C9.76639 14.6924 9.95038 18.2444 12.2504 20.3124C13.3624 21.3164 14.7944 21.8244 16.2944 21.7444C17.7904 21.6644 19.1664 21.0084 20.1664 19.8964C22.2344 17.6004 22.0464 14.0484 19.7504 11.9804C19.2584 11.5364 19.2184 10.7764 19.6624 10.2844C20.1064 9.7924 20.8624 9.7524 21.3584 10.1964C24.6384 13.1484 24.9024 18.2204 21.9504 21.5044ZM14.7984 15.5924V8.8084C14.7984 8.1444 15.3384 7.6084 15.9984 7.6084C16.6624 7.6084 17.1984 8.1444 17.1984 8.8084V15.5924C17.1984 16.2524 16.6624 16.7924 15.9984 16.7924C15.6704 16.7924 15.3664 16.6564 15.1504 16.4404C14.9344 16.2244 14.7984 15.9204 14.7984 15.5924ZM20.8464 51.4884L18.3664 47.2884C18.1424 46.9084 17.8264 46.5964 17.4584 46.3804L17.3944 46.2684H17.2584C16.9104 46.1004 16.5224 46.0084 16.1264 46.0084H11.0744C10.6744 46.0084 10.2904 46.1004 9.94239 46.2684H9.76639L9.67838 46.4164C9.33838 46.6324 9.04639 46.9284 8.83439 47.2884L6.35438 51.4884C6.12638 51.8764 6.00638 52.3044 5.99438 52.7364L5.95438 52.8084L5.99438 52.8804C6.00638 53.3124 6.12638 53.7404 6.35438 54.1284L8.83439 58.3284C9.04639 58.6884 9.33838 58.9844 9.68238 59.2004L9.76639 59.3444H9.93439C10.2864 59.5164 10.6704 59.6084 11.0744 59.6084H16.1264C16.5264 59.6084 16.9144 59.5164 17.2664 59.3444H17.3944L17.4544 59.2404C17.8264 59.0204 18.1424 58.7124 18.3664 58.3284L20.8464 54.1284C21.0864 53.7204 21.2064 53.2644 21.2064 52.8084C21.2064 52.3524 21.0864 51.8964 20.8464 51.4884ZM11.8704 54.8364C12.9344 55.7964 14.5824 55.7084 15.5384 54.6444C16.4984 53.5804 16.4104 51.9324 15.3464 50.9764C15.0984 50.7524 15.0784 50.3724 15.3024 50.1284C15.5224 49.8804 15.9024 49.8604 16.1504 50.0844C17.7064 51.4844 17.8304 53.8924 16.4304 55.4484C15.6824 56.2804 14.6464 56.7044 13.6064 56.7044C12.6984 56.7044 11.7904 56.3804 11.0664 55.7284C9.51038 54.3284 9.38238 51.9204 10.7864 50.3644C10.8944 50.2444 11.0104 50.1284 11.1304 50.0244C11.3824 49.8084 11.7624 49.8404 11.9784 50.0884C12.1944 50.3404 12.1664 50.7204 11.9144 50.9364C11.8304 51.0084 11.7504 51.0844 11.6744 51.1684C10.7184 52.2324 10.8064 53.8804 11.8704 54.8364ZM13.0064 52.2084V49.4084C13.0064 49.0764 13.2784 48.8084 13.6064 48.8084C13.9384 48.8084 14.2064 49.0764 14.2064 49.4084V52.2084C14.2064 52.5404 13.9384 52.8084 13.6064 52.8084C13.2784 52.8084 13.0064 52.5404 13.0064 52.2084ZM18.8584 78.9924C18.8304 78.6844 18.7384 78.3844 18.5784 78.1084L16.8464 75.1084C16.6864 74.8284 16.4704 74.5964 16.2144 74.4164L16.0944 74.2084H15.8544C15.5704 74.0764 15.2624 74.0084 14.9424 74.0084H11.4784C11.1584 74.0084 10.8504 74.0764 10.5664 74.2084H10.3264L10.2064 74.4164C9.95039 74.5964 9.73439 74.8284 9.57439 75.1084L7.84239 78.1084C7.68239 78.3844 7.59038 78.6844 7.56238 78.9924L7.44239 79.2004L7.55838 79.4044C7.58638 79.7164 7.67839 80.0284 7.84239 80.3084L9.57439 83.3084C9.73839 83.5924 9.96238 83.8324 10.2224 84.0124L10.3264 84.1924H10.5304C10.8224 84.3324 11.1464 84.4084 11.4784 84.4084H14.9424C15.2744 84.4084 15.5984 84.3324 15.8904 84.1924H16.0944L16.1984 84.0124C16.4584 83.8324 16.6824 83.5924 16.8464 83.3084L18.5784 80.3084C18.7424 80.0284 18.8344 79.7164 18.8624 79.4044L18.9784 79.2004L18.8584 78.9924ZM12.0224 80.6124C12.7504 81.2644 13.8744 81.2084 14.5264 80.4804C15.1824 79.7524 15.1224 78.6324 14.3944 77.9764C14.2104 77.8084 14.1984 77.5244 14.3624 77.3404C14.5304 77.1564 14.8144 77.1404 14.9984 77.3084C16.0944 78.2924 16.1824 79.9884 15.1984 81.0844C14.7184 81.6124 14.0624 81.9284 13.3504 81.9644C13.3024 81.9684 13.2544 81.9684 13.2064 81.9684C12.5464 81.9684 11.9144 81.7284 11.4224 81.2804C10.8904 80.8044 10.5784 80.1484 10.5384 79.4364C10.5024 78.7204 10.7464 78.0364 11.2224 77.5044C11.2984 77.4204 11.3784 77.3404 11.4664 77.2684C11.6544 77.1044 11.9384 77.1284 12.1024 77.3164C12.2624 77.5044 12.2424 77.7884 12.0544 77.9484C11.9944 78.0004 11.9424 78.0524 11.8904 78.1084C11.5744 78.4604 11.4144 78.9124 11.4384 79.3884C11.4624 79.8604 11.6704 80.2964 12.0224 80.6124ZM12.7584 79.1484V76.8564C12.7584 76.6084 12.9624 76.4084 13.2104 76.4084C13.4584 76.4084 13.6584 76.6084 13.6584 76.8564V79.1484C13.6584 79.3964 13.4584 79.6004 13.2104 79.6004C12.9624 79.6004 12.7584 79.3964 12.7584 79.1484ZM15.8624 96.6604C15.8424 96.4644 15.7784 96.2724 15.6744 96.0964L14.8544 94.7004C14.7504 94.5284 14.6144 94.3804 14.4504 94.2684L14.3784 94.1484H14.2424C14.0584 94.0564 13.8544 94.0084 13.6464 94.0084H11.9584C11.7504 94.0084 11.5464 94.0564 11.3624 94.1484H11.2584L11.2064 94.2364C11.0224 94.3484 10.8664 94.5084 10.7544 94.7004L9.93038 96.0964C9.81438 96.2924 9.75039 96.5044 9.73839 96.7244L9.69438 96.8004L9.73839 96.8764C9.74639 97.1004 9.81038 97.3204 9.93038 97.5204L10.7544 98.9164C10.8704 99.1124 11.0304 99.2764 11.2224 99.3924L11.2584 99.4524H11.3304C11.5224 99.5564 11.7384 99.6084 11.9584 99.6084H13.6464C13.8704 99.6084 14.0864 99.5524 14.2784 99.4524H14.3784L14.4344 99.3604C14.6024 99.2484 14.7464 99.0964 14.8544 98.9164L15.6744 97.5204C15.7824 97.3404 15.8464 97.1404 15.8624 96.9364L15.9424 96.8004L15.8624 96.6604ZM12.1544 97.5644C12.3464 97.7404 12.5864 97.8284 12.8504 97.8124C13.1064 97.8004 13.3464 97.6844 13.5184 97.4924C13.6904 97.3044 13.7784 97.0564 13.7664 96.7964C13.7504 96.5404 13.6384 96.3044 13.4464 96.1284C13.3464 96.0404 13.3384 95.8884 13.4304 95.7924C13.5184 95.6924 13.6704 95.6844 13.7664 95.7724C14.0544 96.0324 14.2224 96.3844 14.2424 96.7724C14.2664 97.1564 14.1344 97.5284 13.8744 97.8164C13.6184 98.1044 13.2624 98.2724 12.8744 98.2924H12.7984C12.4424 98.2924 12.0984 98.1644 11.8344 97.9244C11.5464 97.6644 11.3744 97.3084 11.3544 96.9244C11.3344 96.5364 11.4664 96.1684 11.7264 95.8804C11.7664 95.8364 11.8104 95.7924 11.8544 95.7524C11.9544 95.6644 12.1064 95.6764 12.1944 95.7764C12.2824 95.8764 12.2704 96.0284 12.1704 96.1124C12.1384 96.1404 12.1104 96.1684 12.0824 96.2004C11.9104 96.3924 11.8224 96.6404 11.8344 96.8964C11.8504 97.1564 11.9624 97.3924 12.1544 97.5644ZM12.5584 96.8084V95.6284C12.5584 95.4964 12.6664 95.3884 12.7984 95.3884C12.9344 95.3884 13.0384 95.4964 13.0384 95.6284V96.8084C13.0384 96.9404 12.9344 97.0484 12.7984 97.0484C12.6664 97.0484 12.5584 96.9404 12.5584 96.8084Z" fill="white"/>
<path d="M30.5664 14.0044L25.0144 4.3884C24.3024 3.1524 22.9784 2.3884 21.5504 2.3884H10.4464C9.01843 2.3884 7.69443 3.1524 6.98243 4.3884L1.43043 14.0044C0.714433 15.2444 0.714433 16.7684 1.43043 18.0044L6.98243 27.6204C7.69443 28.8604 9.01843 29.6204 10.4464 29.6204H21.5504C22.9784 29.6204 24.3024 28.8604 25.0144 27.6204L30.5664 18.0044C31.2824 16.7684 31.2824 15.2444 30.5664 14.0044ZM21.9504 21.5044C20.5184 23.0924 18.5544 24.0284 16.4184 24.1404C16.2744 24.1484 16.1344 24.1524 15.9904 24.1524C14.0104 24.1524 12.1264 23.4324 10.6424 22.0964C7.36243 19.1444 7.09443 14.0724 10.0504 10.7884C10.2784 10.5364 10.5224 10.2964 10.7824 10.0764C11.2824 9.6444 12.0384 9.7004 12.4744 10.2044C12.9064 10.7044 12.8464 11.4644 12.3424 11.8964C12.1664 12.0484 11.9944 12.2164 11.8344 12.3964C9.76643 14.6924 9.95043 18.2444 12.2504 20.3124C13.3624 21.3164 14.7944 21.8244 16.2944 21.7444C17.7904 21.6644 19.1664 21.0084 20.1664 19.8964C22.2344 17.6004 22.0464 14.0484 19.7504 11.9804C19.2584 11.5364 19.2184 10.7764 19.6624 10.2844C20.1064 9.7924 20.8624 9.7524 21.3584 10.1964C24.6384 13.1484 24.9024 18.2204 21.9504 21.5044ZM17.1984 8.8084V15.5924C17.1984 16.2524 16.6624 16.7924 15.9984 16.7924C15.6704 16.7924 15.3664 16.6564 15.1504 16.4404C14.9344 16.2244 14.7984 15.9204 14.7984 15.5924V8.8084C14.7984 8.1444 15.3384 7.6084 15.9984 7.6084C16.6624 7.6084 17.1984 8.1444 17.1984 8.8084Z" fill="#68BD45"/>
<path d="M30.9144 13.8044L25.3624 4.1884C24.5784 2.8324 23.1184 1.9884 21.5504 1.9884H10.4464C8.87838 1.9884 7.41839 2.8324 6.63439 4.1884L1.08238 13.8044C0.298385 15.1604 0.298385 16.8484 1.08238 18.2044L6.63439 27.8204C7.41839 29.1804 8.87838 30.0204 10.4464 30.0204H21.5504C23.1184 30.0204 24.5784 29.1804 25.3624 27.8204L30.9144 18.2044C31.6984 16.8484 31.6984 15.1604 30.9144 13.8044ZM21.5504 29.2204H10.4464C9.16238 29.2204 7.97038 28.5324 7.32638 27.4204L1.77438 17.8044C1.13438 16.6964 1.13438 15.3164 1.77438 14.2044L7.32638 4.5884C7.97038 3.4764 9.16238 2.7884 10.4464 2.7884H21.5504C22.8344 2.7884 24.0264 3.4764 24.6704 4.5884L30.2224 14.2044C30.8624 15.3164 30.8624 16.6964 30.2224 17.8044L24.6704 27.4204C24.0264 28.5324 22.8344 29.2204 21.5504 29.2204Z" fill="#5E9C76"/>
<g clip-path="url(#clip1_6_1586)">
<path fill-rule="evenodd" clip-rule="evenodd" d="M16.3321 25.354C16.3413 25.2806 16.3009 25.2099 16.2331 25.1804C16.1652 25.151 16.086 25.1698 16.0387 25.2266L14.372 27.2266C14.3306 27.2763 14.3217 27.3455 14.3491 27.404C14.3765 27.4626 14.4354 27.5 14.5 27.5H15.8112L15.668 28.646C15.6588 28.7194 15.6991 28.7901 15.767 28.8195C15.8349 28.849 15.914 28.8302 15.9614 28.7734L17.6281 26.7734C17.6695 26.7237 17.6784 26.6545 17.651 26.596C17.6235 26.5374 17.5647 26.5 17.5 26.5H16.1888L16.3321 25.354ZM16 27.1667H14.8559L15.9308 25.8767L15.8347 26.646C15.8287 26.6934 15.8435 26.7411 15.8751 26.777C15.9067 26.8128 15.9522 26.8333 16 26.8333H17.1442L16.0693 28.1233L16.1654 27.354C16.1714 27.3066 16.1566 27.2589 16.125 27.223C16.0934 27.1872 16.0478 27.1667 16 27.1667Z" fill="white"/>
</g>
</g>
<defs>
<clipPath id="clip0_6_1586">
<rect width="32" height="32" fill="white"/>
</clipPath>
<clipPath id="clip1_6_1586">
<rect width="4" height="4" fill="white" transform="translate(14 25)"/>
</clipPath>
</defs>
</svg>
